 <svg  version="1.0" xmlns="http://www.w3.org/2000/svg"  width="480.000000pt" height="480.000000pt" viewBox="0 0 480.000000 480.000000"  preserveAspectRatio="xMidYMid meet">  <g transform="translate(0.000000,480.000000) scale(0.100000,-0.100000)" fill="#ffffff" stroke="none"> <path d="M2165 4678 c-98 -34 -220 -86 -287 -124 -43 -24 -79 -44 -82 -44 -3 0 -6 21 -8 47 l-3 47 -60 -54 c-88 -78 -109 -88 -159 -83 -24 3 -60 0 -79 -6 -51 -17 -126 -88 -148 -139 l-19 -44 -93 7 -92 6 -45 -32 c-25 -17 -120 -106 -212 -197 -158 -156 -168 -169 -190 -231 -21 -62 -32 -76 -176 -220 -85 -84 -171 -180 -192 -213 -64 -98 -95 -209 -144 -512 l-26 -159 44 -86 c50 -99 87 -196 116 -312 26 -100 24 -140 -8 -154 -22 -9 -24 -14 -20 -85 3 -67 11 -91 75 -235 137 -308 180 -411 207 -491 20 -62 32 -84 51 -92 34 -16 51 -47 70 -127 31 -134 80 -214 163 -262 39 -23 61 -28 154 -34 99 -5 112 -9 155 -37 86 -57 151 -84 216 -89 52 -4 84 -17 197 -76 74 -38 152 -81 173 -94 28 -18 46 -23 68 -18 27 6 29 5 29 -25 0 -32 0 -32 43 -26 205 29 379 30 500 4 29 -6 93 -12 142 -12 82 -1 98 -5 171 -39 45 -20 87 -37 93 -37 6 0 11 11 11 24 0 28 37 46 134 66 l59 12 41 -43 41 -44 6 44 c7 53 28 71 86 71 l43 0 0 38 c0 34 9 47 99 140 54 56 105 102 112 102 7 0 28 -15 47 -32 l33 -33 -10 28 c-6 16 -22 43 -36 61 -14 18 -25 38 -25 44 0 16 97 45 126 38 16 -4 23 -3 20 3 -12 18 45 51 88 51 22 0 46 4 52 8 16 10 34 48 34 70 0 11 31 57 68 103 123 151 214 302 291 482 28 65 51 122 51 125 0 14 -113 -106 -132 -140 -21 -37 -43 -52 -68 -46 -7 2 -17 -11 -22 -29 -12 -45 -28 -51 -28 -11 0 18 -4 28 -8 22 -6 -9 -351 -271 -474 -360 -116 -83 -318 -214 -341 -219 -18 -5 -31 -1 -47 15 l-22 22 -29 -21 c-37 -28 -57 -27 -65 4 -5 20 -13 25 -35 25 -22 0 -32 -6 -39 -25 -10 -27 -25 -33 -33 -12 -2 6 -8 0 -12 -15 -7 -28 -25 -39 -25 -15 -1 6 -10 1 -21 -13 -17 -20 -22 -22 -29 -10 -5 8 -16 24 -24 35 -15 20 -15 20 -16 -2 0 -13 -4 -23 -10 -23 -5 0 -10 -6 -10 -14 0 -25 -82 -96 -112 -96 -14 0 -78 -9 -141 -20 l-115 -19 -113 24 c-145 30 -216 42 -359 56 -137 13 -262 48 -347 95 -64 36 -74 48 -49 57 8 3 20 15 25 26 11 19 10 20 -24 6 -19 -8 -45 -15 -58 -15 -29 0 -289 239 -554 507 -185 188 -197 206 -282 409 -39 92 -45 100 -67 96 -19 -3 -26 2 -40 31 -19 40 -13 66 16 74 24 6 24 16 4 153 -21 146 -20 169 9 236 22 50 31 102 56 334 17 151 39 310 50 353 68 263 201 452 518 741 101 92 152 129 300 217 383 229 492 268 781 278 167 6 175 7 193 30 13 16 19 39 19 72 0 45 -2 49 -24 49 -13 0 -44 16 -69 35 -47 36 -71 41 -122 23z m-1663 -2725 c8 -10 25 -43 37 -73 13 -30 28 -61 33 -67 17 -21 -6 -15 -35 7 -16 13 -29 35 -33 58 -3 20 -12 47 -20 59 -8 12 -14 25 -14 28 0 11 18 4 32 -12z m-53 -15 c18 -49 22 -68 14 -68 -10 0 -53 63 -53 78 0 21 30 13 39 -10z"/> <path d="M2812 4554 c-12 -3 -29 -16 -38 -29 -13 -20 -20 -22 -40 -14 -66 24 -153 0 -173 -49 -35 -84 99 -183 268 -199 58 -6 77 -14 181 -77 113 -70 297 -194 475 -323 50 -35 114 -81 143 -101 l54 -36 46 18 c82 31 77 33 79 -31 2 -85 56 -226 101 -266 88 -79 101 -95 112 -138 9 -33 10 -59 1 -103 -10 -57 -9 -61 22 -120 18 -33 60 -91 95 -127 40 -43 62 -75 62 -90 0 -13 4 -31 10 -39 7 -12 12 -12 29 5 12 10 24 16 27 13 3 -4 0 -51 -6 -106 -7 -54 -10 -110 -7 -123 3 -18 5 -15 6 11 2 55 29 198 51 270 l20 65 -26 -32 c-44 -57 -50 -46 -58 100 -4 72 -15 200 -25 283 l-17 152 -74 118 c-40 66 -99 160 -130 209 -31 50 -94 151 -140 225 -133 215 -257 327 -480 434 -150 72 -250 96 -410 101 -74 2 -145 1 -158 -1z"/> <path d="M1560 3290 c-93 -25 -199 -76 -278 -135 -123 -90 -233 -259 -268 -412 -25 -106 -25 -282 0 -383 62 -253 243 -446 502 -537 74 -26 90 -28 239 -28 150 0 165 2 240 28 104 37 211 93 235 125 19 23 20 42 20 288 0 171 -4 272 -11 287 -19 42 -47 47 -273 47 -195 0 -216 -2 -237 -19 -18 -14 -24 -29 -24 -61 0 -32 6 -47 24 -61 21 -17 41 -19 187 -19 l164 0 -2 -197 -3 -198 -85 -29 c-111 -38 -288 -48 -390 -21 -211 55 -379 232 -425 450 -68 322 119 641 421 719 129 33 314 16 443 -40 29 -13 63 -24 76 -24 33 0 65 40 65 83 0 33 -5 41 -45 66 -24 15 -82 41 -127 56 -73 25 -100 29 -228 32 -120 2 -158 0 -220 -17z"/> <path d="M2395 3275 c-51 -50 -44 -65 155 -332 208 -281 286 -387 296 -403 4 -8 9 -157 10 -330 1 -173 2 -325 3 -337 3 -57 89 -85 131 -43 19 19 20 33 20 349 l0 329 38 55 c20 30 116 163 212 296 96 133 187 261 203 283 50 76 28 158 -43 158 -35 0 -51 -14 -112 -101 -240 -342 -362 -509 -369 -509 -5 0 -32 33 -61 74 -53 73 -87 120 -273 376 -54 74 -105 141 -113 148 -26 20 -71 14 -97 -13z"/> </g> </svg> 